Coordinates
version=1
nRows=16
nColumns=22
inDegrees=yes

Units are S.I. units (second, meters, Newtons, ...)
If the header above contains a line with 'inDegrees', this indicates whether rotational values are in degrees (yes) or radians (no).

endheader
time	pelvis_tilt	pelvis_list	pelvis_rotation	pelvis_tx	pelvis_ty	pelvis_tz	hip_flexion_r	hip_adduction_r	hip_rotation_r	knee_angle_r	ankle_angle_r	subtalar_angle_r	hip_flexion_l	hip_adduction_l	hip_rotation_l	knee_angle_l	ankle_angle_l	subtalar_angle_l	lumbar_extension	lumbar_bending	lumbar_rotation
      1.81000000	      5.15437110	     -3.11527421	     66.58814364	      0.86171711	      1.03900068	      0.52452753	     23.37303903	      4.79470556	      4.58219237	    -17.94894020	      5.58594861	      8.91563734	    -12.53027551	      2.23415145	     19.64039716	    -26.29894534	     11.40593280	     -2.52998513	     -3.76354258	      2.40670531	    -10.34821031
      1.82000000	      5.42015903	     -3.02066106	     67.25087380	      0.86740723	      1.03964217	      0.51295304	     23.27143390	      5.00029834	      4.62053573	    -19.47576833	      5.40130452	      8.83491323	    -12.22016832	      1.99385093	     19.49203522	    -28.20420931	      9.58553583	     -0.04821572	     -3.61167474	      2.73730336	    -10.47286553
      1.83000000	      5.66112764	     -2.88626334	     67.93305017	      0.87289574	      1.04050101	      0.50136096	     23.04761306	      5.14217632	      4.58068845	    -20.83522293	      5.43551829	      8.66485159	    -11.77445763	      1.79038006	     19.22547626	    -30.27434189	      7.47179654	      2.75321021	     -3.49637674	      3.02474558	    -10.60452757
      1.84000000	      5.87129060	     -2.72369567	     68.65754881	      0.87815410	      1.04151996	      0.48983625	     22.69916197	      5.22453096	      4.46425642	    -21.98888139	      5.65391784	      8.32162724	    -11.16174030	      1.61311308	     18.85982447	    -32.51268631	      5.10367371	      5.77857837	     -3.41560342	      3.26374014	    -10.75562350
      1.85000000	      6.05496941	     -2.54884195	     69.44077750	      0.88316889	      1.04263774	      0.47846688	     22.23930943	      5.26368840	      4.26029053	    -22.92760792	      6.01108746	      7.76521731	    -10.35760996	      1.44390376	     18.42008660	    -34.91547858	      2.53836943	      8.84981508	     -3.36705829	      3.46117151	    -10.93051692
      1.86000000	      6.23779703	     -2.37285735	     70.27398877	      0.88795353	      1.04382268	      0.46733431	     21.66642359	      5.30347110	      4.00340239	    -23.63793661	      6.44884539	      7.02576758	     -9.35757418	      1.24956550	     17.90286128	    -37.47326437	     -0.14653604	     11.82338988	     -3.36054712	      3.64984823	    -11.10619286
      1.87000000	      6.40529925	     -2.20912637	     71.17591370	      0.89246647	      1.04500517	      0.45649595	     21.02671118	      5.32048954	      3.60368364	    -24.15646480	      6.94691983	      6.12788792	     -8.14071414	      1.04341211	     17.36790294	    -40.18142817	     -2.88977512	     14.47524408	     -3.38231516	      3.81425128	    -11.28322315
      1.88000000	      6.58710946	     -2.06068461	     72.12479416	      0.89672734	      1.04617412	      0.44599019	     20.31839939	      5.35553294	      3.10721368	    -24.48772251	      7.47186457	      5.15271558	     -6.72653971	      0.79658906	     16.80382931	    -43.01289328	     -5.61783794	     16.70665517	     -3.44423887	      3.99565896	    -11.43608440
      1.89000000	      6.80292632	     -1.91995224	     73.09270859	      0.90080580	      1.04734026	      0.43580977	     19.54123588	      5.43017435	      2.50627405	    -24.64959746	      7.98571254	      4.20431853	     -5.15867984	      0.49335863	     16.21303373	    -45.91871992	     -8.25597688	     18.43566190	     -3.55473765	      4.20615461	    -11.52668647
      1.90000000	      7.04797666	     -1.76298841	     74.01769804	      0.90480366	      1.04853614	      0.42598165	     18.69711899	      5.56307947	      1.92743832	    -24.68829222	      8.46313804	      3.33436142	     -3.50424351	      0.15797864	     15.60030781	    -48.82716892	    -10.74442292	     19.74933436	     -3.74140404	      4.43287269	    -11.50667312
      1.91000000	      7.32066497	     -1.59791876	     74.89387184	      0.90873456	      1.04975288	      0.41638433	     17.79144703	      5.74313682	      1.33298874	    -24.60145913	      8.93240705	      2.62695900	     -1.79634754	     -0.21063920	     14.97575009	    -51.67232843	    -12.93237438	     20.53874525	     -3.97020621	      4.68170103	    -11.38364441
      1.92000000	      7.60590871	     -1.40801524	     75.68077202	      0.91265973	      1.05102372	      0.40699156	     16.83589292	      5.96172247	      0.77554572	    -24.43830159	      9.36639181	      2.11954048	     -0.09757776	     -0.57931822	     14.35553914	    -54.38143267	    -14.71403708	     20.88145229	     -4.25252134	      4.93116243	    -11.12558402
      1.93000000	      7.86770371	     -1.20058030	     76.35334152	      0.91661778	      1.05234727	      0.39774746	     15.85463955	      6.18533164	      0.27764781	    -24.21847468	      9.74652381	      1.77047554	      1.56909611	     -0.90801412	     13.73335598	    -56.89585968	    -15.97562956	     20.82280363	     -4.55915020	      5.14103392	    -10.72319922
      1.94000000	      8.06148256	     -0.99597326	     76.90518945	      0.92061467	      1.05367482	      0.38864672	     14.88625261	      6.37987583	     -0.08593451	    -23.96834008	     10.15809217	      1.51164938	      3.21198482	     -1.14676226	     13.10837667	    -59.18300089	    -16.68920867	     20.10717413	     -4.85579205	      5.26924255	    -10.21908627
      1.95000000	      8.22187412	     -0.76735826	     77.35496325	      0.92461213	      1.05508085	      0.37963261	     13.89287252	      6.55210259	     -0.40251326	    -23.68580269	     10.50763256	      1.46680723	      4.77393784	     -1.32881932	     12.49261212	    -61.21451031	    -16.79683646	     18.99646523	     -5.17731161	      5.34948659	     -9.60636976
      1.96000000	      8.34166282	     -0.54266310	     77.70943435	      0.92862592	      1.05652133	      0.37069419	     12.89445633	      6.70376945	     -0.65109901	    -23.35798097	     10.83856274	      1.51212018	      6.28304174	     -1.46771160	     11.86312915	    -62.98381007	    -16.34959499	     17.53328249	     -5.48773282	      5.38073928	     -8.93653592
